# File produced by Open Asset Import Library (http://www.assimp.sf.net)
# (assimp v5.0.1588609223)

mtllib result.mtl

# 126 vertex positions
v  1.57736 0.10983999 2.1711197
v  0 0.10983999 2.6835997
v  0 -1.4164799 3.1637597
v  1.8595999 -1.4164799 2.5595198
v  2.5523198 0.10983999 0.82928002
v  3.0088797 -1.4164799 0.97768003
v  2.5523198 0.10983999 -0.82928002
v  3.0088797 -1.4164799 -0.97768003
v  1.57736 0.10983999 -2.1711197
v  1.8595999 -1.4164799 -2.5595198
v  0 0.10983999 -2.6835997
v  0 -1.4164799 -3.1637597
v  -1.57736 0.10983999 -2.1711197
v  -1.8595999 -1.4164799 -2.5595198
v  -2.5523198 0.10983999 -0.82928002
v  -3.0088797 -1.4164799 -0.97768003
v  -2.5523198 0.10983999 0.82928002
v  -3.0088797 -1.4164799 0.97768003
v  -1.57736 0.10983999 2.1711197
v  -1.8595999 -1.4164799 2.5595198
v  0 -4.4990396 3.1637597
v  1.8595999 -4.4990396 2.5595198
v  1.8595999 -3.7086399 2.5595198
v  0 -3.7086399 3.1637597
v  3.0088797 -4.4990396 0.97768003
v  3.0088797 -3.7086399 0.97768003
v  3.0088797 -4.4990396 -0.97768003
v  3.0088797 -3.7086399 -0.97768003
v  1.8595999 -4.4990396 -2.5595198
v  1.8595999 -3.7086399 -2.5595198
v  0 -4.4990396 -3.1637597
v  0 -3.7086399 -3.1637597
v  -1.8595999 -4.4990396 -2.5595198
v  -1.8595999 -3.7086399 -2.5595198
v  -3.0088797 -4.4990396 -0.97768003
v  -3.0088797 -3.7086399 -0.97768003
v  -3.0088797 -4.4990396 0.97768003
v  -3.0088797 -3.7086399 0.97768003
v  -1.8595999 -4.4990396 2.5595198
v  -1.8595999 -3.7086399 2.5595198
v  0 -5.9467998 1.95024
v  1.1463199 -5.9467998 1.5778399
v  0 -6.7912798 0
v  1.8547999 -5.9467998 0.60263991
v  1.8547999 -5.9467998 -0.60263991
v  1.1463199 -5.9467998 -1.5778399
v  0 -5.9467998 -1.95024
v  -1.1463199 -5.9467998 -1.5778399
v  -1.8547999 -5.9467998 -0.60263991
v  -1.8547999 -5.9467998 0.60263991
v  -1.1463199 -5.9467998 1.5778399
v  1.2049599 1.73856 1.6584799
v  0.56455994 4.2116795 0.77711993
v  0 4.2116795 0.96055996
v  0 1.73856 2.0499997
v  0 4.2116795 0
v  1.94968 1.73856 0.63351995
v  0.91351998 4.2116795 0.29679996
v  1.94968 1.73856 -0.63351995
v  0.91351998 4.2116795 -0.29679996
v  1.2049599 1.73856 -1.6584799
v  0.56455994 4.2116795 -0.77711993
v  0 1.73856 -2.0499997
v  0 4.2116795 -0.96055996
v  -1.2049599 1.73856 -1.6584799
v  -0.56455994 4.2116795 -0.77711993
v  -1.94968 1.73856 -0.63351995
v  -0.91351998 4.2116795 -0.29679996
v  -1.94968 1.73856 0.63351995
v  -0.91351998 4.2116795 0.29679996
v  -1.2049599 1.73856 1.6584799
v  -0.56455994 4.2116795 0.77711993
v  0.78863996 3.9375997 1.0854399
v  0.78863996 7.0431199 1.0854399
v  0 7.0431199 1.3416799
v  0 3.9375997 1.3416799
v  1.2759999 3.9375997 0.41455993
v  1.2759999 7.0431199 0.41455993
v  1.2759999 3.9375997 -0.41455993
v  1.2759999 7.0431199 -0.41455993
v  0.78863996 3.9375997 -1.0854399
v  0.78863996 7.0431199 -1.0854399
v  0 3.9375997 -1.3416799
v  0 7.0431199 -1.3416799
v  -0.78863996 3.9375997 -1.0854399
v  -0.78863996 7.0431199 -1.0854399
v  -1.2759999 3.9375997 -0.41455993
v  -1.2759999 7.0431199 -0.41455993
v  -1.2759999 3.9375997 0.41455993
v  -1.2759999 7.0431199 0.41455993
v  -0.78863996 3.9375997 1.0854399
v  -0.78863996 7.0431199 1.0854399
v  0 7.0431199 0
v  0 3.9375997 0
v  -0.12935999 5.5546393 3.1628797
v  -0.12935999 8.0198393 3.1628797
v  -0.12935999 6.6927996 0.69767994
v  -0.12935999 4.2275996 0.69767994
v  0.12935999 5.5546393 3.1628797
v  0.12935999 8.0198393 3.1628797
v  0.12935999 4.2275996 0.69767994
v  0.12935999 6.6927996 0.69767994
v  -0.12935999 5.5546393 -3.1628797
v  -0.12935999 4.2275996 -0.69767994
v  -0.12935999 6.6927996 -0.69767994
v  -0.12935999 8.0198393 -3.1628797
v  0.12935999 5.5546393 -3.1628797
v  0.12935999 8.0198393 -3.1628797
v  0.12935999 4.2275996 -0.69767994
v  0.12935999 6.6927996 -0.69767994
v  -3.1628797 5.5546393 0.12935999
v  -0.69767994 4.2275996 0.12935999
v  -0.69767994 6.6927996 0.12935999
v  -3.1628797 8.0198393 0.12935999
v  -3.1628797 5.5546393 -0.12935999
v  -3.1628797 8.0198393 -0.12935999
v  -0.69767994 4.2275996 -0.12935999
v  -0.69767994 6.6927996 -0.12935999
v  3.1628797 5.5546393 0.12935999
v  3.1628797 8.0198393 0.12935999
v  0.69767994 6.6927996 0.12935999
v  0.69767994 4.2275996 0.12935999
v  3.1628797 5.5546393 -0.12935999
v  3.1628797 8.0198393 -0.12935999
v  0.69767994 4.2275996 -0.12935999
v  0.69767994 6.6927996 -0.12935999

# 306 UV coordinates
vt 0.15880901 0.81290901 0
vt 0.091706999 0.81290901 0
vt 0.091706999 0.74798 0
vt 0.17081399 0.74798 0
vt 0.26961899 0.81290901 0
vt 0.21254 0.81290901 0
vt 0.196016 0.74798 0
vt 0.26330799 0.74798 0
vt 0.34017399 0.81290901 0
vt 0.346486 0.74798 0
vt 0.39725399 0.81290901 0
vt 0.41377699 0.74798 0
vt 0.51808602 0.81290901 0
vt 0.45098501 0.81290901 0
vt 0.43898001 0.74798 0
vt 0.51808602 0.74798 0
vt 0.58518797 0.81290901 0
vt 0.597193 0.74798 0
vt 0.69599801 0.81290901 0
vt 0.63891798 0.81290901 0
vt 0.62239498 0.74798 0
vt 0.68968701 0.74798 0
vt 0.76655298 0.81290901 0
vt 0.77286398 0.74798 0
vt 0.82363302 0.81290901 0
vt 0.84015602 0.74798 0
vt 0.024606001 0.81290901 0
vt 0.012601 0.74798 0
vt 0.091706999 0.61684799 0
vt 0.17081399 0.61684799 0
vt 0.17081399 0.65047097 0
vt 0.091706999 0.65047097 0
vt 0.196016 0.61684799 0
vt 0.26330799 0.61684799 0
vt 0.26330799 0.65047097 0
vt 0.196016 0.65047097 0
vt 0.346486 0.61684799 0
vt 0.346486 0.65047097 0
vt 0.41377699 0.61684799 0
vt 0.41377699 0.65047097 0
vt 0.43898001 0.61684799 0
vt 0.51808602 0.61684799 0
vt 0.51808602 0.65047097 0
vt 0.43898001 0.65047097 0
vt 0.597193 0.61684799 0
vt 0.597193 0.65047097 0
vt 0.62239498 0.61684799 0
vt 0.68968701 0.61684799 0
vt 0.68968701 0.65047097 0
vt 0.62239498 0.65047097 0
vt 0.77286398 0.61684799 0
vt 0.77286398 0.65047097 0
vt 0.84015602 0.61684799 0
vt 0.84015602 0.65047097 0
vt 0.012601 0.61684799 0
vt 0.012601 0.65047097 0
vt 0.091706999 0.555264 0
vt 0.14047199 0.555264 0
vt 0.140268 0.51421702 0
vt 0.091504 0.53006196 0
vt 0.091504 0.44709802 0
vt 0.23777799 0.555264 0
vt 0.27926001 0.555264 0
vt 0.170406 0.47273499 0
vt 0.33053401 0.555264 0
vt 0.170406 0.42146099 0
vt 0.372015 0.555264 0
vt 0.140268 0.37998003 0
vt 0.469322 0.555264 0
vt 0.51808602 0.555264 0
vt 0.091504 0.36413503 0
vt 0.56685102 0.555264 0
vt 0.042739 0.37998003 0
vt 0.66415697 0.555264 0
vt 0.70563799 0.555264 0
vt 0.012601 0.42146099 0
vt 0.75691301 0.555264 0
vt 0.012601 0.47273499 0
vt 0.79839402 0.555264 0
vt 0.042739 0.51421702 0
vt 0.042943001 0.555264 0
vt 0.142966 0.88219202 0
vt 0.115725 0.98739898 0
vt 0.091706999 0.98739898 0
vt 0.091706999 0.88219202 0
vt 0.92139298 0.075298011 0
vt 0.94541001 0.083100975 0
vt 0.92139298 0.11615801 0
vt 0.27794901 0.88219202 0
vt 0.29227 0.98739898 0
vt 0.27184001 0.98739898 0
vt 0.234346 0.88219202 0
vt 0.96025401 0.10353202 0
vt 0.33184499 0.88219202 0
vt 0.317523 0.98739898 0
vt 0.96025401 0.12878501 0
vt 0.37544799 0.88219202 0
vt 0.33795401 0.98739898 0
vt 0.94541001 0.14921498 0
vt 0.51808602 0.88219202 0
vt 0.51808602 0.98739898 0
vt 0.49406901 0.98739898 0
vt 0.46682799 0.88219202 0
vt 0.92139298 0.15701902 0
vt 0.56934398 0.88219202 0
vt 0.54210299 0.98739898 0
vt 0.897376 0.14921498 0
vt 0.70432699 0.88219202 0
vt 0.71864903 0.98739898 0
vt 0.698219 0.98739898 0
vt 0.66072398 0.88219202 0
vt 0.882532 0.12878501 0
vt 0.75822401 0.88219202 0
vt 0.74390203 0.98739898 0
vt 0.882532 0.10353202 0
vt 0.80182701 0.88219202 0
vt 0.764332 0.98739898 0
vt 0.897376 0.083100975 0
vt 0.06769 0.98739898 0
vt 0.040449001 0.88219202 0
vt 0.96865898 0.85529101 0
vt 0.96865898 0.98739898 0
vt 0.935112 0.98739898 0
vt 0.935112 0.85529101 0
vt 0.224553 0.024909973 0
vt 0.224553 0.15701902 0
vt 0.196016 0.15701902 0
vt 0.196016 0.024909973 0
vt 0.259826 0.024909973 0
vt 0.259826 0.15701902 0
vt 0.288362 0.024909973 0
vt 0.288362 0.15701902 0
vt 0.47252601 0.024909973 0
vt 0.47252601 0.15701902 0
vt 0.43898001 0.15701902 0
vt 0.43898001 0.024909973 0
vt 0.506073 0.024909973 0
vt 0.506073 0.15701902 0
vt 0.650931 0.024909973 0
vt 0.650931 0.15701902 0
vt 0.62239498 0.15701902 0
vt 0.62239498 0.024909973 0
vt 0.68620402 0.024909973 0
vt 0.68620402 0.15701902 0
vt 0.71474099 0.024909973 0
vt 0.71474099 0.15701902 0
vt 0.90156502 0.98739898 0
vt 0.90156502 0.85529101 0
vt 0.066881001 0.038266003 0
vt 0.100427 0.049166024 0
vt 0.066881001 0.095339 0
vt 0.12116 0.077701986 0
vt 0.12116 0.112975 0
vt 0.100427 0.14151198 0
vt 0.066881001 0.152412 0
vt 0.033333998 0.14151198 0
vt 0.012601 0.112975 0
vt 0.012601 0.077701986 0
vt 0.033333998 0.049166024 0
vt 0.84029001 0.146119 0
vt 0.80674303 0.15701902 0
vt 0.80674303 0.099946022 0
vt 0.86102301 0.11758202 0
vt 0.86102301 0.082309008 0
vt 0.84029001 0.053772986 0
vt 0.80674303 0.042873025 0
vt 0.773197 0.053772986 0
vt 0.752464 0.082309008 0
vt 0.752464 0.11758202 0
vt 0.773197 0.146119 0
vt 0.196016 0.42519498 0
vt 0.196016 0.53006196 0
vt 0.196016 0.47360897 0
vt 0.196016 0.36874199 0
vt 0.207021 0.42519498 0
vt 0.207021 0.53006196 0
vt 0.207021 0.36874199 0
vt 0.207021 0.47360897 0
vt 0.44998401 0.36874199 0
vt 0.44998401 0.47360897 0
vt 0.43898001 0.47360897 0
vt 0.43898001 0.36874199 0
vt 0.44998401 0.53006196 0
vt 0.43898001 0.53006196 0
vt 0.63339901 0.42519498 0
vt 0.63339901 0.36874199 0
vt 0.63339901 0.47360897 0
vt 0.63339901 0.53006196 0
vt 0.62239498 0.42519498 0
vt 0.62239498 0.53006196 0
vt 0.62239498 0.36874199 0
vt 0.62239498 0.47360897 0
vt 0.232223 0.36874199 0
vt 0.243228 0.36874199 0
vt 0.243228 0.47360897 0
vt 0.232223 0.47360897 0
vt 0.232223 0.53006196 0
vt 0.243228 0.53006196 0
vt 0.486191 0.42519498 0
vt 0.486191 0.36874199 0
vt 0.486191 0.47360897 0
vt 0.486191 0.53006196 0
vt 0.475187 0.42519498 0
vt 0.475187 0.53006196 0
vt 0.475187 0.36874199 0
vt 0.475187 0.47360897 0
vt 0.658602 0.36874199 0
vt 0.66960597 0.36874199 0
vt 0.66960597 0.47360897 0
vt 0.658602 0.47360897 0
vt 0.658602 0.53006196 0
vt 0.66960597 0.53006196 0
vt 0.26842999 0.42519498 0
vt 0.26842999 0.53006196 0
vt 0.26842999 0.47360897 0
vt 0.26842999 0.36874199 0
vt 0.27943501 0.42519498 0
vt 0.27943501 0.53006196 0
vt 0.27943501 0.36874199 0
vt 0.27943501 0.47360897 0
vt 0.52239799 0.36874199 0
vt 0.52239799 0.47360897 0
vt 0.51139301 0.47360897 0
vt 0.51139301 0.36874199 0
vt 0.52239799 0.53006196 0
vt 0.51139301 0.53006196 0
vt 0.69480902 0.42519498 0
vt 0.79967499 0.36874199 0
vt 0.79967499 0.47360897 0
vt 0.69480902 0.53006196 0
vt 0.30463701 0.42519498 0
vt 0.31564099 0.42519498 0
vt 0.31564099 0.53006196 0
vt 0.30463701 0.53006196 0
vt 0.196016 0.182221 0
vt 0.300883 0.23867399 0
vt 0.300883 0.34354001 0
vt 0.196016 0.28708798 0
vt 0.43898001 0.182221 0
vt 0.44998401 0.182221 0
vt 0.44998401 0.28708798 0
vt 0.43898001 0.28708798 0
vt 0.43898001 0.34354001 0
vt 0.44998401 0.34354001 0
vt 0.30463701 0.36874199 0
vt 0.31564099 0.36874199 0
vt 0.72726101 0.23867399 0
vt 0.72726101 0.34354001 0
vt 0.62239498 0.28708798 0
vt 0.62239498 0.182221 0
vt 0.486191 0.23867399 0
vt 0.486191 0.34354001 0
vt 0.475187 0.34354001 0
vt 0.475187 0.23867399 0
vt 0.117468 0.17761397 0
vt 0.117468 0.28248 0
vt 0.012601 0.33893299 0
vt 0.012601 0.23406702 0
vt 0.55860502 0.36874199 0
vt 0.55860502 0.47360897 0
vt 0.54759997 0.47360897 0
vt 0.54759997 0.36874199 0
vt 0.55860502 0.53006196 0
vt 0.54759997 0.53006196 0
vt 0.475187 0.182221 0
vt 0.486191 0.182221 0
vt 0.85733002 0.23867399 0
vt 0.85733002 0.34354001 0
vt 0.752464 0.28708798 0
vt 0.752464 0.182221 0
vt 0.52239799 0.23867399 0
vt 0.52239799 0.34354001 0
vt 0.51139301 0.34354001 0
vt 0.51139301 0.23867399 0
vt 0.92974401 0.36874199 0
vt 0.92974401 0.47360897 0
vt 0.82487702 0.53006196 0
vt 0.82487702 0.42519498 0
vt 0.87636298 0.82607996 0
vt 0.87636298 0.93094599 0
vt 0.865358 0.93094599 0
vt 0.865358 0.82607996 0
vt 0.87636298 0.98739898 0
vt 0.865358 0.98739898 0
vt 0.51139301 0.182221 0
vt 0.52239799 0.182221 0
vt 0.865358 0.69601101 0
vt 0.97022498 0.63955796 0
vt 0.97022498 0.744425 0
vt 0.865358 0.80087698 0
vt 0.34084401 0.42519498 0
vt 0.35184801 0.42519498 0
vt 0.35184801 0.53006196 0
vt 0.34084401 0.53006196 0
vt 0.882532 0.182221 0
vt 0.98739898 0.23867399 0
vt 0.98739898 0.34354001 0
vt 0.882532 0.28708798 0
vt 0.326085 0.182221 0
vt 0.33708999 0.182221 0
vt 0.33708999 0.28708798 0
vt 0.326085 0.28708798 0
vt 0.326085 0.34354001 0
vt 0.33708999 0.34354001 0
vt 0.34084401 0.36874199 0
vt 0.35184801 0.36874199 0

# 87 vertex normals
vn 0.55454218 0.33153212 0.76326227
vn 0 0.33153287 0.9434436
vn 0 0.15212098 0.98836184
vn 0.58094466 0.1521209 0.79960144
vn 0.89726853 0.33153221 0.29154018
vn 0.93998784 0.15212098 0.30542094
vn 0.89726853 0.33153221 -0.29154018
vn 0.93998784 0.15212098 -0.30542094
vn 0.55454218 0.33153212 -0.76326227
vn 0.58094466 0.1521209 -0.79960144
vn 0 0.33153197 -0.94344395
vn 0 0.15212098 -0.98836184
vn -0.55454218 0.33153212 -0.76326227
vn -0.58094466 0.1521209 -0.79960144
vn -0.89726853 0.33153221 -0.29154018
vn -0.93998784 0.15212098 -0.30542094
vn -0.89726853 0.33153221 0.29154018
vn -0.93998784 0.15212098 0.30542094
vn -0.55454218 0.33153212 0.76326227
vn -0.58094394 0.15212099 0.79960191
vn 0 -0.34520683 0.93852651
vn 0.55165195 -0.34520698 0.75928396
vn 0.58778507 0 0.80901712
vn 9.9999988e-07 0 0.99999994
vn 0.89259166 -0.34520686 0.29002088
vn 0.95105648 0 0.30901715
vn 0.89259166 -0.34520686 -0.29002088
vn 0.95105648 0 -0.30901715
vn 0.55165195 -0.34520698 -0.75928396
vn 0.58778507 0 -0.80901712
vn 0 -0.34520683 -0.93852651
vn 0 0 -0.99999994
vn -0.55165195 -0.34520698 -0.75928396
vn -0.58778507 0 -0.80901712
vn -0.89259166 -0.34520686 -0.29002088
vn -0.95105648 0 -0.30901682
vn -0.89259166 -0.34520686 0.29002088
vn -0.95105648 0 0.30901682
vn -0.55165195 -0.34520698 0.75928396
vn -0.58778507 0 0.80901712
vn 0 -0.80308902 0.59585899
vn 0.35023788 -0.80308878 0.48205984
vn 0 -0.99999994 0
vn 0.56669575 -0.80308867 0.18413092
vn 0.56669575 -0.80308867 -0.18413092
vn 0.35023686 -0.80308867 -0.48206079
vn 0 -0.80308902 -0.59585899
vn -0.35023788 -0.80308878 -0.48205984
vn -0.56669575 -0.80308867 -0.18413092
vn -0.56669575 -0.80308867 0.18413092
vn -0.35023704 -0.80308914 0.48206005
vn 0.54297578 0.38295886 0.74734169
vn 0.53790683 0.40313289 0.74036479
vn 0 0.40313274 0.9151414
vn 0 0.38295916 0.92376536
vn 0 0.99999994 0
vn 0.87855309 0.38295907 0.28545904
vn 0.8703512 0.40313309 0.28279406
vn 0.87855309 0.38295907 -0.28545904
vn 0.8703512 0.40313309 -0.28279406
vn 0.54297578 0.38295886 -0.74734169
vn 0.53790683 0.40313289 -0.74036479
vn 0 0.38295916 -0.92376536
vn 0 0.40313274 -0.9151414
vn -0.54297578 0.38295886 -0.74734169
vn -0.53790683 0.40313289 -0.74036479
vn -0.87855309 0.38295907 -0.28545904
vn -0.8703512 0.40313309 -0.28279406
vn -0.87855309 0.38295907 0.28545904
vn -0.8703512 0.40313309 0.28279406
vn -0.54297513 0.3829591 0.74734217
vn -0.53790611 0.40313309 0.74036521
vn 0 0 0.99999994
vn -0.95105648 0 -0.30901715
vn -0.95105648 0 0.30901715
vn -0.99999994 0 0
vn 1.9999998e-06 0 0.99999994
vn 0.99999994 0 0
vn -9.9999988e-07 0.88051993 -0.47400898
vn 9.9999943e-07 -0.88051951 0.47400972
vn -1.9999998e-06 0 -0.99999994
vn 9.9999988e-07 0.88051993 0.47400898
vn -9.9999943e-07 -0.88051951 -0.47400972
vn 0.47400823 0.8805204 0
vn -0.47400972 -0.88051951 -0
vn -0.47400823 0.8805204 0
vn 0.47400972 -0.88051951 0

# Mesh '材質1' with 236 faces
g 材質1
usemtl 
f  1/1/1 2/2/2 3/3/3
f  4/4/4 1/1/1 3/3/3
f  5/5/5 1/6/1 4/7/4
f  6/8/6 5/5/5 4/7/4
f  7/9/7 5/5/5 6/8/6
f  8/10/8 7/9/7 6/8/6
f  9/11/9 7/9/7 8/10/8
f  10/12/10 9/11/9 8/10/8
f  11/13/11 9/14/9 10/15/10
f  12/16/12 11/13/11 10/15/10
f  13/17/13 11/13/11 12/16/12
f  14/18/14 13/17/13 12/16/12
f  15/19/15 13/20/13 14/21/14
f  16/22/16 15/19/15 14/21/14
f  17/23/17 15/19/15 16/22/16
f  18/24/18 17/23/17 16/22/16
f  19/25/19 17/23/17 18/24/18
f  20/26/20 19/25/19 18/24/18
f  2/2/2 19/27/19 20/28/20
f  3/3/3 2/2/2 20/28/20
f  21/29/21 22/30/22 23/31/23
f  24/32/24 21/29/21 23/31/23
f  22/33/22 25/34/25 26/35/26
f  23/36/23 22/33/22 26/35/26
f  25/34/25 27/37/27 28/38/28
f  26/35/26 25/34/25 28/38/28
f  27/37/27 29/39/29 30/40/30
f  28/38/28 27/37/27 30/40/30
f  29/41/29 31/42/31 32/43/32
f  30/44/30 29/41/29 32/43/32
f  31/42/31 33/45/33 34/46/34
f  32/43/32 31/42/31 34/46/34
f  33/47/33 35/48/35 36/49/36
f  34/50/34 33/47/33 36/49/36
f  35/48/35 37/51/37 38/52/38
f  36/49/36 35/48/35 38/52/38
f  37/51/37 39/53/39 40/54/40
f  38/52/38 37/51/37 40/54/40
f  39/55/39 21/29/21 24/32/24
f  40/56/40 39/55/39 24/32/24
f  21/29/21 41/57/41 42/58/42
f  22/30/22 21/29/21 42/58/42
f  42/59/42 41/60/41 43/61/43
f  22/33/22 42/62/42 44/63/44
f  25/34/25 22/33/22 44/63/44
f  44/64/44 42/59/42 43/61/43
f  25/34/25 44/63/44 45/65/45
f  27/37/27 25/34/25 45/65/45
f  45/66/45 44/64/44 43/61/43
f  27/37/27 45/65/45 46/67/46
f  29/39/29 27/37/27 46/67/46
f  46/68/46 45/66/45 43/61/43
f  29/41/29 46/69/46 47/70/47
f  31/42/31 29/41/29 47/70/47
f  47/71/47 46/68/46 43/61/43
f  31/42/31 47/70/47 48/72/48
f  33/45/33 31/42/31 48/72/48
f  48/73/48 47/71/47 43/61/43
f  33/47/33 48/74/48 49/75/49
f  35/48/35 33/47/33 49/75/49
f  49/76/49 48/73/48 43/61/43
f  35/48/35 49/75/49 50/77/50
f  37/51/37 35/48/35 50/77/50
f  50/78/50 49/76/49 43/61/43
f  37/51/37 50/77/50 51/79/51
f  39/53/39 37/51/37 51/79/51
f  51/80/51 50/78/50 43/61/43
f  39/55/39 51/81/51 41/57/41
f  21/29/21 39/55/39 41/57/41
f  41/60/41 51/80/51 43/61/43
f  52/82/52 53/83/53 54/84/54
f  55/85/55 52/82/52 54/84/54
f  54/86/56 53/87/56 56/88/56
f  57/89/57 58/90/58 53/91/53
f  52/92/52 57/89/57 53/91/53
f  53/87/56 58/93/56 56/88/56
f  59/94/59 60/95/60 58/90/58
f  57/89/57 59/94/59 58/90/58
f  58/93/56 60/96/56 56/88/56
f  61/97/61 62/98/62 60/95/60
f  59/94/59 61/97/61 60/95/60
f  60/96/56 62/99/56 56/88/56
f  63/100/63 64/101/64 62/102/62
f  61/103/61 63/100/63 62/102/62
f  62/99/56 64/104/56 56/88/56
f  65/105/65 66/106/66 64/101/64
f  63/100/63 65/105/65 64/101/64
f  64/104/56 66/107/56 56/88/56
f  67/108/67 68/109/68 66/110/66
f  65/111/65 67/108/67 66/110/66
f  66/107/56 68/112/56 56/88/56
f  69/113/69 70/114/70 68/109/68
f  67/108/67 69/113/69 68/109/68
f  68/112/56 70/115/56 56/88/56
f  71/116/71 72/117/72 70/114/70
f  69/113/69 71/116/71 70/114/70
f  70/115/56 72/118/56 56/88/56
f  55/85/55 54/84/54 72/119/72
f  71/120/71 55/85/55 72/119/72
f  72/118/56 54/86/56 56/88/56
f  73/121/23 74/122/23 75/123/73
f  76/124/73 73/121/23 75/123/73
f  77/125/26 78/126/26 74/127/23
f  73/128/23 77/125/26 74/127/23
f  79/129/28 80/130/28 78/126/26
f  77/125/26 79/129/28 78/126/26
f  81/131/30 82/132/30 80/130/28
f  79/129/28 81/131/30 80/130/28
f  83/133/32 84/134/32 82/135/30
f  81/136/30 83/133/32 82/135/30
f  85/137/34 86/138/34 84/134/32
f  83/133/32 85/137/34 84/134/32
f  87/139/74 88/140/74 86/141/34
f  85/142/34 87/139/74 86/141/34
f  89/143/75 90/144/75 88/140/74
f  87/139/74 89/143/75 88/140/74
f  91/145/40 92/146/40 90/144/75
f  89/143/75 91/145/40 90/144/75
f  76/124/73 75/123/73 92/147/40
f  91/148/40 76/124/73 92/147/40
f  75/149/56 74/150/56 93/151/56
f  74/150/56 78/152/56 93/151/56
f  78/152/56 80/153/56 93/151/56
f  80/153/56 82/154/56 93/151/56
f  82/154/56 84/155/56 93/151/56
f  84/155/56 86/156/56 93/151/56
f  86/156/56 88/157/56 93/151/56
f  88/157/56 90/158/56 93/151/56
f  90/158/56 92/159/56 93/151/56
f  92/159/56 75/149/56 93/151/56
f  73/160/43 76/161/43 94/162/43
f  77/163/43 73/160/43 94/162/43
f  79/164/43 77/163/43 94/162/43
f  81/165/43 79/164/43 94/162/43
f  83/166/43 81/165/43 94/162/43
f  85/167/43 83/166/43 94/162/43
f  87/168/43 85/167/43 94/162/43
f  89/169/43 87/168/43 94/162/43
f  91/170/43 89/169/43 94/162/43
f  76/161/43 91/170/43 94/162/43
f  95/171/76 96/172/76 97/173/76
f  98/174/76 95/171/76 97/173/76
f  99/175/77 100/176/77 96/172/77
f  95/171/77 99/175/77 96/172/77
f  101/177/78 102/178/78 100/176/78
f  99/175/78 101/177/78 100/176/78
f  98/179/32 97/180/32 102/181/32
f  101/182/32 98/179/32 102/181/32
f  96/183/79 100/184/79 102/181/79
f  97/180/79 96/183/79 102/181/79
f  99/175/80 95/171/80 98/174/80
f  101/177/80 99/175/80 98/174/80
f  103/185/76 104/186/76 105/187/76
f  106/188/76 103/185/76 105/187/76
f  107/189/81 103/185/81 106/188/81
f  108/190/81 107/189/81 106/188/81
f  109/191/78 107/189/78 108/190/78
f  110/192/78 109/191/78 108/190/78
f  104/193/73 109/194/73 110/195/73
f  105/196/73 104/193/73 110/195/73
f  106/197/82 105/196/82 110/195/82
f  108/198/82 106/197/82 110/195/82
f  107/189/83 109/191/83 104/186/83
f  103/185/83 107/189/83 104/186/83
f  103/199/76 104/200/76 105/201/76
f  106/202/76 103/199/76 105/201/76
f  107/203/81 103/199/81 106/202/81
f  108/204/81 107/203/81 106/202/81
f  109/205/78 107/203/78 108/204/78
f  110/206/78 109/205/78 108/204/78
f  104/207/73 109/208/73 110/209/73
f  105/210/73 104/207/73 110/209/73
f  106/211/82 105/210/82 110/209/82
f  108/212/82 106/211/82 110/209/82
f  107/203/83 109/205/83 104/200/83
f  103/199/83 107/203/83 104/200/83
f  95/213/76 96/214/76 97/215/76
f  98/216/76 95/213/76 97/215/76
f  99/217/77 100/218/77 96/214/77
f  95/213/77 99/217/77 96/214/77
f  101/219/78 102/220/78 100/218/78
f  99/217/78 101/219/78 100/218/78
f  98/221/32 97/222/32 102/223/32
f  101/224/32 98/221/32 102/223/32
f  96/225/79 100/226/79 102/223/79
f  97/222/79 96/225/79 102/223/79
f  99/217/80 95/213/80 98/216/80
f  101/219/80 99/217/80 98/216/80
f  111/227/73 112/228/73 113/229/73
f  114/230/73 111/227/73 113/229/73
f  115/231/76 111/232/76 114/233/76
f  116/234/76 115/231/76 114/233/76
f  117/235/32 115/236/32 116/237/32
f  118/238/32 117/235/32 116/237/32
f  112/239/78 117/240/78 118/241/78
f  113/242/78 112/239/78 118/241/78
f  114/243/84 113/242/84 118/241/84
f  116/244/84 114/243/84 118/241/84
f  115/231/85 117/245/85 112/246/85
f  111/232/85 115/231/85 112/246/85
f  119/247/73 120/248/73 121/249/73
f  122/250/73 119/247/73 121/249/73
f  123/251/78 124/252/78 120/253/78
f  119/254/78 123/251/78 120/253/78
f  125/255/32 126/256/32 124/257/32
f  123/258/32 125/255/32 124/257/32
f  122/259/76 121/260/76 126/261/76
f  125/262/76 122/259/76 126/261/76
f  120/263/86 124/264/86 126/261/86
f  121/260/86 120/263/86 126/261/86
f  123/251/87 119/254/87 122/265/87
f  125/266/87 123/251/87 122/265/87
f  119/267/73 120/268/73 121/269/73
f  122/270/73 119/267/73 121/269/73
f  123/271/78 124/272/78 120/273/78
f  119/274/78 123/271/78 120/273/78
f  125/275/32 126/276/32 124/277/32
f  123/278/32 125/275/32 124/277/32
f  122/279/76 121/280/76 126/281/76
f  125/282/76 122/279/76 126/281/76
f  120/283/86 124/284/86 126/281/86
f  121/280/86 120/283/86 126/281/86
f  123/271/87 119/274/87 122/285/87
f  125/286/87 123/271/87 122/285/87
f  111/287/73 112/288/73 113/289/73
f  114/290/73 111/287/73 113/289/73
f  115/291/76 111/292/76 114/293/76
f  116/294/76 115/291/76 114/293/76
f  117/295/32 115/296/32 116/297/32
f  118/298/32 117/295/32 116/297/32
f  112/299/78 117/300/78 118/301/78
f  113/302/78 112/299/78 118/301/78
f  114/303/84 113/302/84 118/301/84
f  116/304/84 114/303/84 118/301/84
f  115/291/85 117/305/85 112/306/85
f  111/292/85 115/291/85 112/306/85

# Mesh '材質2' with 40 faces
g 材質2
usemtl 
f  4/4/4 3/3/3 24/32/24
f  23/31/23 4/4/4 24/32/24
f  6/8/6 4/7/4 23/36/23
f  26/35/26 6/8/6 23/36/23
f  8/10/8 6/8/6 26/35/26
f  28/38/28 8/10/8 26/35/26
f  10/12/10 8/10/8 28/38/28
f  30/40/30 10/12/10 28/38/28
f  12/16/12 10/15/10 30/44/30
f  32/43/32 12/16/12 30/44/30
f  14/18/14 12/16/12 32/43/32
f  34/46/34 14/18/14 32/43/32
f  16/22/16 14/21/14 34/50/34
f  36/49/36 16/22/16 34/50/34
f  18/24/18 16/22/16 36/49/36
f  38/52/38 18/24/18 36/49/36
f  20/26/20 18/24/18 38/52/38
f  40/54/40 20/26/20 38/52/38
f  3/3/3 20/28/20 40/56/40
f  24/32/24 3/3/3 40/56/40
f  1/1/1 52/82/52 55/85/55
f  2/2/2 1/1/1 55/85/55
f  5/5/5 57/89/57 52/92/52
f  1/6/1 5/5/5 52/92/52
f  7/9/7 59/94/59 57/89/57
f  5/5/5 7/9/7 57/89/57
f  9/11/9 61/97/61 59/94/59
f  7/9/7 9/11/9 59/94/59
f  11/13/11 63/100/63 61/103/61
f  9/14/9 11/13/11 61/103/61
f  13/17/13 65/105/65 63/100/63
f  11/13/11 13/17/13 63/100/63
f  15/19/15 67/108/67 65/111/65
f  13/20/13 15/19/15 65/111/65
f  17/23/17 69/113/69 67/108/67
f  15/19/15 17/23/17 67/108/67
f  19/25/19 71/116/71 69/113/69
f  17/23/17 19/25/19 69/113/69
f  2/2/2 55/85/55 71/120/71
f  19/27/19 2/2/2 71/120/71

