# File produced by Open Asset Import Library (http://www.assimp.sf.net)
# (assimp v5.0.1588609223)

mtllib result.mtl

# 56 vertex positions
v  2.8194478 1.1301787 -0.51584393
v  2.8194478 14.295306 -0.51584393
v  2.8194478 14.295306 -0.28414795
v  2.8194478 1.1301787 -0.28414795
v  -2.8194478 1.1301787 -0.28414795
v  -2.8194478 14.295306 -0.28414795
v  -2.8194478 14.295306 -0.51584393
v  -2.8194478 1.1301787 -0.51584393
v  -2.0500557 14.295306 0.11584798
v  -2.0500557 14.295306 -0.11584798
v  -2.0500557 0.17016724 -0.11584798
v  -2.0500557 0.17016724 0.11584798
v  2.0136957 14.295306 -0.11584798
v  2.0136957 14.295306 0.11584798
v  2.0136957 0.17016724 0.11584798
v  2.0136957 0.17016724 -0.11584798
v  2.0136957 12.202734 0.11584798
v  2.0136957 12.60273 0.11584798
v  1.6251119 12.60273 0.11584798
v  1.6251119 12.202734 0.11584798
v  2.0136957 12.60273 -0.11584798
v  2.0136957 12.202734 -0.11584798
v  1.6251119 12.202734 -0.11584798
v  1.6251119 12.60273 -0.11584798
v  -2.0500557 12.60273 0.11584798
v  -2.0500557 12.202734 0.11584798
v  -1.5274079 12.202734 0.11584798
v  -1.5274079 12.60273 0.11584798
v  -2.0500557 12.202734 -0.11584798
v  -2.0500557 12.60273 -0.11584798
v  -1.5274079 12.60273 -0.11584798
v  -1.5274079 12.202734 -0.11584798
v  0.16523997 9.7123976 -0.27435598
v  -0.034235995 9.7123976 -0.27435598
v  -0.034235995 9.73983 -0.37065595
v  0.16523997 9.73983 -0.37065595
v  0.16523997 11.087346 -0.37065595
v  -0.034235995 11.087346 -0.37065595
v  -0.034235995 11.114778 -0.27435598
v  0.16523997 11.114778 -0.27435598
v  -0.034235995 9.8426104 -0.37065595
v  0.16523997 9.8426104 -0.37065595
v  -0.034235995 9.8426104 -0.27435598
v  0.16523997 9.8426104 -0.27435598
v  0.16523997 10.997778 -0.37065595
v  -0.034235995 10.997778 -0.37065595
v  0.16523997 10.997778 -0.27435598
v  -0.034235995 10.997778 -0.27435598
v  0.16523997 9.6918058 0.090827987
v  0.16523997 9.5618467 0.090827987
v  -0.034235995 9.5618467 0.090827987
v  -0.034235995 9.6918058 0.090827987
v  -0.034235995 11.152111 0.090827987
v  -0.034235995 11.26533 0.090827987
v  0.16523997 11.26533 0.090827987
v  0.16523997 11.152111 0.090827987

# 44 UV coordinates
vt 0.56572998 0.16719002 0
vt 0.56572998 0.88145 0
vt 0.25979999 0.16719002 0
vt 0.25979999 0.88145 0
vt 0.30153999 0.88145 0
vt 0.30153999 0.11510998 0
vt 0.52201003 0.88145 0
vt 0.52201003 0.11510998 0
vt 0.52201003 0.76792002 0
vt 0.52201003 0.78961998 0
vt 0.50093001 0.78961998 0
vt 0.50093001 0.76792002 0
vt 0.85356998 0.79128003 0
vt 0.85356998 0.76956999 0
vt 0.83249003 0.76956999 0
vt 0.83249003 0.79128003 0
vt 0.30153999 0.78961998 0
vt 0.30153999 0.76792002 0
vt 0.32989001 0.76792002 0
vt 0.32989001 0.78961998 0
vt 0.63309997 0.76956999 0
vt 0.63309997 0.79128003 0
vt 0.66145998 0.79128003 0
vt 0.66145998 0.76956999 0
vt 0.63309997 0.11677003 0
vt 0.63309997 0.88310003 0
vt 0.59135997 0.88310003 0
vt 0.59135997 0.16885 0
vt 0.85356998 0.11677003 0
vt 0.89728999 0.88310003 0
vt 0.89728999 0.16885 0
vt 0.85356998 0.88310003 0
vt 1 0 0
vt 1 1 0
vt 0 1 0
vt 0 0 0
vt 0.78008002 1 0
vt 0.78008002 0 0
vt 0.21342 0 0
vt 0.21342 1 0
vt 0.21991999 1 0
vt 0.21991999 0 0
vt 0.78658003 0 0
vt 0.78658003 1 0

# 21 vertex normals
vn 0.99999994 0 0
vn -0.99999994 0 0
vn 0 0.99999994 0
vn -0.78031874 -0.62538183 -0
vn 0.7659533 -0.64289623 0
vn 0 -0.99999994 0
vn 0 0 0.99999994
vn 0 0 -0.99999994
vn -0.46127981 0 0.88725466
vn 0 0 0
vn 0.46127981 0 -0.88725466
vn 0.44464692 0 0.89570582
vn -0.44464692 0 -0.89570582
vn 0 -0.94466484 -0.32803693
vn 0 -0.96177012 -0.27385804
vn 0 0.96177012 -0.27385804
vn 0 0.94466627 -0.32803309
vn 0 -0.92450982 -0.38115793
vn 0 0.92427224 0.3817341
vn 0 0.92451322 -0.3811501
vn 0 -0.9211244 0.38926819

# Mesh '材質1' with 64 faces
g 材質1
usemtl 
f  1/1/1 2/2/1 3/2/1
f  4/1/1 1/1/1 3/2/1
f  5/3/2 6/4/2 7/4/2
f  8/3/2 5/3/2 7/4/2
f  7/4/3 6/4/3 9/5/3
f  10/5/3 7/4/3 9/5/3
f  5/3/4 8/3/4 11/6/4
f  12/6/4 5/3/4 11/6/4
f  3/2/3 2/2/3 13/7/3
f  14/7/3 3/2/3 13/7/3
f  10/5/3 9/5/3 14/7/3
f  13/7/3 10/5/3 14/7/3
f  1/1/5 4/1/5 15/8/5
f  16/8/5 1/1/5 15/8/5
f  12/6/6 11/6/6 16/8/6
f  15/8/6 12/6/6 16/8/6
f  17/9/7 18/10/7 19/11/7
f  20/12/7 17/9/7 19/11/7
f  21/13/8 22/14/8 23/15/8
f  24/16/8 21/13/8 23/15/8
f  25/17/7 26/18/7 27/19/7
f  28/20/7 25/17/7 27/19/7
f  29/21/8 30/22/8 31/23/8
f  32/24/8 29/21/8 31/23/8
f  28/20/6 31/20/6 24/11/6
f  19/11/6 28/20/6 24/11/6
f  19/11/2 24/11/2 23/12/2
f  20/12/2 19/11/2 23/12/2
f  20/12/3 23/12/3 32/19/3
f  27/19/3 20/12/3 32/19/3
f  27/19/1 32/19/1 31/20/1
f  28/20/1 27/19/1 31/20/1
f  12/6/9 6/4/9 5/3/9
f  25/17/9 9/5/9 6/4/9
f  26/18/9 25/17/9 6/4/9
f  6/4/9 12/6/9 26/18/9
f  11/25/10 30/22/10 29/21/10
f  11/25/10 10/26/10 30/22/10
f  11/25/11 7/27/11 10/26/11
f  11/25/11 8/28/11 7/27/11
f  15/8/10 18/10/10 17/9/10
f  15/8/10 14/7/10 18/10/10
f  15/8/12 3/2/12 14/7/12
f  15/8/12 4/1/12 3/2/12
f  16/29/13 2/30/13 1/31/13
f  21/13/13 13/32/13 2/30/13
f  22/14/13 21/13/13 2/30/13
f  2/30/13 16/29/13 22/14/13
f  28/20/7 9/5/7 25/17/7
f  28/20/7 14/7/7 9/5/7
f  19/11/7 14/7/7 28/20/7
f  19/11/7 18/10/7 14/7/7
f  13/32/8 30/22/8 10/26/8
f  13/32/8 31/23/8 30/22/8
f  13/32/8 24/16/8 31/23/8
f  13/32/8 21/13/8 24/16/8
f  15/8/7 26/18/7 12/6/7
f  15/8/7 27/19/7 26/18/7
f  15/8/7 20/12/7 27/19/7
f  15/8/7 17/9/7 20/12/7
f  32/24/8 11/25/8 29/21/8
f  32/24/8 16/29/8 11/25/8
f  23/15/8 16/29/8 32/24/8
f  23/15/8 22/14/8 16/29/8

# Mesh '材質2' with 44 faces
g 材質2
usemtl 
f  33/33/14 34/34/14 35/35/15
f  36/36/15 33/33/14 35/35/15
f  37/33/16 38/34/16 39/35/17
f  40/36/17 37/33/16 39/35/17
f  36/33/8 35/34/8 41/37/8
f  42/38/8 36/33/8 41/37/8
f  35/33/2 34/34/2 43/37/2
f  41/38/2 35/33/2 43/37/2
f  33/33/1 36/34/1 42/37/1
f  44/38/1 33/33/1 42/37/1
f  38/35/8 37/36/8 45/39/8
f  46/40/8 38/35/8 45/39/8
f  42/38/8 41/37/8 46/40/8
f  45/39/8 42/38/8 46/40/8
f  43/41/7 44/42/7 47/43/7
f  48/44/7 43/41/7 47/43/7
f  39/35/2 38/36/2 46/39/2
f  48/40/2 39/35/2 46/39/2
f  41/38/2 43/37/2 48/40/2
f  46/39/2 41/38/2 48/40/2
f  37/35/1 40/36/1 47/39/1
f  45/40/1 37/35/1 47/39/1
f  44/38/1 42/37/1 45/40/1
f  47/39/1 44/38/1 45/40/1
f  44/42/1 49/42/1 50/36/1
f  33/36/1 44/42/1 50/36/1
f  33/36/14 50/36/18 51/35/18
f  34/35/14 33/36/14 51/35/18
f  34/35/2 51/35/2 52/41/2
f  43/41/2 34/35/2 52/41/2
f  43/41/19 52/41/19 49/42/19
f  44/42/19 43/41/19 49/42/19
f  51/35/7 50/36/7 49/42/7
f  52/41/7 51/35/7 49/42/7
f  48/44/2 53/44/2 54/34/2
f  39/34/2 48/44/2 54/34/2
f  39/34/17 54/34/20 55/33/20
f  40/33/17 39/34/17 55/33/20
f  40/33/1 55/33/1 56/43/1
f  47/43/1 40/33/1 56/43/1
f  47/43/21 56/43/21 53/44/21
f  48/44/21 47/43/21 53/44/21
f  55/33/7 54/34/7 53/44/7
f  56/43/7 55/33/7 53/44/7

